<svg width="32" height="33" viewBox="0 0 32 33" fill="none" xmlns="http://www.w3.org/2000/svg">
<path opacity="0.1" fill-rule="evenodd" clip-rule="evenodd" d="M0 16.6718C0 7.8352 7.16344 0.671753 16 0.671753C24.8366 0.671753 32 7.8352 32 16.6718C32 25.5083 24.8366 32.6718 16 32.6718C7.16344 32.6718 0 25.5083 0 16.6718Z" fill="white"/>
<path fill-rule="evenodd" clip-rule="evenodd" d="M16.0007 8.13843C13.6832 8.13843 13.3923 8.14856 12.4821 8.18998C11.5736 8.23158 10.9535 8.37541 10.4109 8.58643C9.84969 8.80439 9.37359 9.09595 8.89928 9.57044C8.42461 10.0448 8.13305 10.5209 7.91438 11.0819C7.70282 11.6247 7.55882 12.245 7.51793 13.1531C7.47722 14.0633 7.46655 14.3543 7.46655 16.6718C7.46655 18.9894 7.47686 19.2793 7.51811 20.1896C7.55989 21.098 7.70371 21.7181 7.91456 22.2607C8.13269 22.822 8.42425 23.2981 8.89875 23.7724C9.37288 24.247 9.84898 24.5393 10.4099 24.7573C10.9528 24.9683 11.5731 25.1121 12.4814 25.1537C13.3916 25.1951 13.6823 25.2053 15.9996 25.2053C18.3173 25.2053 18.6073 25.1951 19.5175 25.1537C20.426 25.1121 21.0468 24.9683 21.5897 24.7573C22.1508 24.5393 22.6262 24.247 23.1003 23.7724C23.575 23.2981 23.8665 22.822 24.0852 22.2609C24.295 21.7181 24.439 21.0979 24.4817 20.1898C24.5226 19.2795 24.5332 18.9894 24.5332 16.6718C24.5332 14.3543 24.5226 14.0635 24.4817 13.1532C24.439 12.2448 24.295 11.6247 24.0852 11.0821C23.8665 10.5209 23.575 10.0448 23.1003 9.57044C22.6256 9.09577 22.151 8.80421 21.5892 8.58643C21.0452 8.37541 20.4247 8.23158 19.5163 8.18998C18.606 8.14856 18.3163 8.13843 15.998 8.13843H16.0007ZM15.2351 9.6762C15.4623 9.67584 15.7158 9.6762 16.0006 9.6762C18.2791 9.6762 18.5491 9.68438 19.4489 9.72526C20.2809 9.76331 20.7324 9.90233 21.0332 10.0191C21.4315 10.1738 21.7154 10.3587 22.0139 10.6574C22.3125 10.956 22.4974 11.2405 22.6525 11.6387C22.7693 11.9392 22.9085 12.3907 22.9463 13.2227C22.9872 14.1223 22.9961 14.3925 22.9961 16.6699C22.9961 18.9472 22.9872 19.2175 22.9463 20.117C22.9083 20.949 22.7693 21.4006 22.6525 21.701C22.4978 22.0993 22.3125 22.3828 22.0139 22.6813C21.7152 22.98 21.4316 23.1649 21.0332 23.3195C20.7328 23.4369 20.2809 23.5755 19.4489 23.6136C18.5493 23.6545 18.2791 23.6634 16.0006 23.6634C13.722 23.6634 13.452 23.6545 12.5524 23.6136C11.7204 23.5752 11.2689 23.4362 10.9679 23.3194C10.5697 23.1647 10.2852 22.9798 9.98654 22.6811C9.68787 22.3825 9.50298 22.0987 9.34796 21.7003C9.23116 21.3999 9.09196 20.9483 9.05409 20.1163C9.0132 19.2167 9.00502 18.9465 9.00502 16.6677C9.00502 14.389 9.0132 14.1202 9.05409 13.2206C9.09213 12.3886 9.23116 11.937 9.34796 11.6362C9.50263 11.238 9.68787 10.9535 9.98654 10.6549C10.2852 10.3562 10.5697 10.1713 10.9679 10.0163C11.2687 9.89896 11.7204 9.76029 12.5524 9.72206C13.3396 9.68651 13.6447 9.67584 15.2351 9.67406V9.6762ZM20.5557 11.0931C19.9904 11.0931 19.5317 11.5512 19.5317 12.1168C19.5317 12.6821 19.9904 13.1408 20.5557 13.1408C21.1211 13.1408 21.5797 12.6821 21.5797 12.1168C21.5797 11.5514 21.1211 11.0931 20.5557 11.0931ZM16.0007 12.2896C13.5806 12.2896 11.6184 14.2517 11.6184 16.6718C11.6184 19.0919 13.5806 21.0532 16.0007 21.0532C18.4208 21.0532 20.3823 19.0919 20.3823 16.6718C20.3823 14.2517 18.4208 12.2896 16.0007 12.2896ZM16.0007 13.8274C17.5715 13.8274 18.8451 15.1008 18.8451 16.6718C18.8451 18.2427 17.5715 19.5163 16.0007 19.5163C14.4296 19.5163 13.1562 18.2427 13.1562 16.6718C13.1562 15.1008 14.4296 13.8274 16.0007 13.8274Z" fill="white"/>
</svg>
