<svg width="32" height="33" viewBox="0 0 32 33" fill="none" xmlns="http://www.w3.org/2000/svg">
<path opacity="0.1" fill-rule="evenodd" clip-rule="evenodd" d="M0 16.6718C0 7.8352 7.16344 0.671753 16 0.671753C24.8366 0.671753 32 7.8352 32 16.6718C32 25.5083 24.8366 32.6718 16 32.6718C7.16344 32.6718 0 25.5083 0 16.6718Z" fill="white"/>
<path fill-rule="evenodd" clip-rule="evenodd" d="M24.5332 16.6599C24.5332 17.237 24.4745 17.8133 24.3591 18.3751C24.2465 18.9235 24.0799 19.4619 23.8615 19.9766C23.6482 20.4822 23.3836 20.9694 23.0744 21.4237C22.7698 21.8752 22.419 22.2988 22.0335 22.6849C21.6473 23.0693 21.2222 23.4192 20.771 23.7251C20.3151 24.0322 19.8272 24.2964 19.3213 24.5107C18.8059 24.7279 18.2662 24.8943 17.7183 25.0066C17.1558 25.1223 16.5774 25.1814 15.9995 25.1814C15.4211 25.1814 14.8428 25.1223 14.2811 25.0066C13.7323 24.8943 13.1927 24.7279 12.6777 24.5107C12.1718 24.2964 11.6834 24.0322 11.2276 23.7251C10.7763 23.4193 10.3513 23.0693 9.96587 22.6849C9.58003 22.2988 9.22915 21.8752 8.92414 21.4237C8.61663 20.9694 8.35159 20.4821 8.13743 19.9766C7.91906 19.4619 7.75199 18.9234 7.63907 18.3751C7.5249 17.8133 7.46655 17.237 7.46655 16.6599C7.46655 16.0824 7.52487 15.5049 7.6391 14.9444C7.75203 14.396 7.91909 13.8567 8.13747 13.3429C8.35163 12.8369 8.61666 12.3493 8.92418 11.8949C9.22919 11.443 9.58006 11.0203 9.9659 10.6337C10.3513 10.2492 10.7764 9.90015 11.2276 9.59475C11.6835 9.28641 12.1719 9.02223 12.6777 8.8075C13.1927 8.58985 13.7323 8.42302 14.2811 8.31153C14.8428 8.19669 15.4212 8.13843 15.9995 8.13843C16.5775 8.13843 17.1558 8.19669 17.7184 8.31153C18.2663 8.42305 18.8059 8.58988 19.3214 8.8075C19.8272 9.02219 20.3152 9.28641 20.771 9.59475C21.2223 9.90015 21.6473 10.2492 22.0336 10.6337C22.419 11.0203 22.7699 11.443 23.0745 11.8949C23.3836 12.3493 23.6482 12.8369 23.8615 13.3429C24.0799 13.8567 24.2465 14.396 24.3591 14.9444C24.4745 15.5049 24.5332 16.0824 24.5332 16.6599ZM12.8901 10.0778C10.8579 11.0361 9.34119 12.906 8.86824 15.1595C9.06036 15.1612 12.0972 15.1995 15.5961 14.2711C14.3348 12.0334 12.9872 10.2072 12.8901 10.0778ZM16.1999 15.3917C12.4476 16.5134 8.84699 16.4327 8.71783 16.4278C8.71573 16.506 8.71199 16.5817 8.71199 16.6599C8.71199 18.5294 9.41827 20.2337 10.5792 21.5223C10.5767 21.5186 12.571 17.9856 16.5036 16.7157C16.5986 16.6841 16.6953 16.6558 16.7912 16.6283C16.6083 16.2147 16.4086 15.8003 16.1999 15.3917ZM20.8122 11.1983C19.5292 10.0686 17.8446 9.38339 15.9995 9.38339C15.4074 9.38339 14.8327 9.45496 14.2823 9.58727C14.3915 9.73375 15.7603 11.547 17.0066 13.8322C19.7563 12.8028 20.7943 11.225 20.8122 11.1983ZM17.2879 17.8341C17.2717 17.8395 17.2554 17.8441 17.2396 17.8499C12.9398 19.3467 11.5357 22.3632 11.5205 22.3961C12.7577 23.3568 14.3094 23.9365 15.9995 23.9365C17.0087 23.9365 17.97 23.7313 18.8446 23.3598C18.7367 22.724 18.3134 20.4954 17.2879 17.8341ZM20.0718 22.6949C21.7081 21.5922 22.8702 19.8414 23.1944 17.8133C23.0444 17.765 21.0055 17.1205 18.6533 17.4971C19.6092 20.1201 19.9976 22.2563 20.0718 22.6949ZM17.5675 14.9165C17.7367 15.2635 17.9005 15.6167 18.0517 15.9717C18.1055 16.099 18.158 16.2239 18.2092 16.3487C20.7127 16.0341 23.179 16.5634 23.2845 16.585C23.2678 14.8599 22.6498 13.2767 21.6273 12.0372C21.6136 12.0567 20.4448 13.7431 17.5675 14.9165Z" fill="white"/>
</svg>
